<mxfile host="app.diagrams.net" agent="Mozilla/5.0 (Macintosh; Intel Mac OS X 10_15_7) AppleWebKit/537.36 (KHTML, like Gecko) Chrome/126.0.0.0 Safari/537.36" version="24.7.4">
  <diagram name="Page-1" id="LY8vc-i3pF6Pu4qzSC2D">
    <mxGraphModel>
      <root>
        <mxCell id="0" />
        <mxCell id="1" parent="0" />
        <mxCell id="2" value="Activity Callbacks" style="whiteSpace=wrap;strokeWidth=2;verticalAlign=top;" vertex="1" parent="1">
          <mxGeometry x="219" y="109" width="169" height="783" as="geometry" />
        </mxCell>
        <mxCell id="3" value="onCreate" style="ellipse;aspect=fixed;strokeWidth=2;whiteSpace=wrap;" vertex="1" parent="1">
          <mxGeometry x="270" y="134" width="80" height="80" as="geometry" />
        </mxCell>
        <mxCell id="4" value="onStart" style="ellipse;aspect=fixed;strokeWidth=2;whiteSpace=wrap;" vertex="1" parent="1">
          <mxGeometry x="276" y="264" width="67" height="67" as="geometry" />
        </mxCell>
        <mxCell id="5" value="onResume" style="ellipse;aspect=fixed;strokeWidth=2;whiteSpace=wrap;" vertex="1" parent="1">
          <mxGeometry x="266" y="381" width="87" height="87" as="geometry" />
        </mxCell>
        <mxCell id="6" value="onPause" style="ellipse;aspect=fixed;strokeWidth=2;whiteSpace=wrap;" vertex="1" parent="1">
          <mxGeometry x="273" y="518" width="73" height="73" as="geometry" />
        </mxCell>
        <mxCell id="7" value="onStop" style="ellipse;aspect=fixed;strokeWidth=2;whiteSpace=wrap;" vertex="1" parent="1">
          <mxGeometry x="278" y="641" width="64" height="64" as="geometry" />
        </mxCell>
        <mxCell id="8" value="onDestroy" style="ellipse;aspect=fixed;strokeWidth=2;whiteSpace=wrap;" vertex="1" parent="1">
          <mxGeometry x="254" y="780" width="86" height="86" as="geometry" />
        </mxCell>
        <mxCell id="9" value="Activity State Transitions" style="whiteSpace=wrap;strokeWidth=2;verticalAlign=top;" vertex="1" parent="1">
          <mxGeometry width="199" height="730" as="geometry" />
        </mxCell>
        <mxCell id="10" value="Created" style="rounded=1;whiteSpace=wrap;arcSize=50;strokeWidth=2;" vertex="1" parent="1">
          <mxGeometry x="83" y="25" width="80" height="34" as="geometry" />
        </mxCell>
        <mxCell id="11" value="Started" style="rounded=1;whiteSpace=wrap;arcSize=50;strokeWidth=2;" vertex="1" parent="1">
          <mxGeometry x="75" y="157" width="76" height="34" as="geometry" />
        </mxCell>
        <mxCell id="12" value="Resumed" style="rounded=1;whiteSpace=wrap;arcSize=50;strokeWidth=2;" vertex="1" parent="1">
          <mxGeometry x="59" y="281" width="87" height="34" as="geometry" />
        </mxCell>
        <mxCell id="13" value="Paused" style="rounded=1;whiteSpace=wrap;arcSize=50;strokeWidth=2;" vertex="1" parent="1">
          <mxGeometry x="66" y="408" width="73" height="34" as="geometry" />
        </mxCell>
        <mxCell id="14" value="Stopped" style="rounded=1;whiteSpace=wrap;arcSize=50;strokeWidth=2;" vertex="1" parent="1">
          <mxGeometry x="52" y="538" width="81" height="34" as="geometry" />
        </mxCell>
        <mxCell id="15" value="Destroyed" style="rounded=1;whiteSpace=wrap;arcSize=50;strokeWidth=2;" vertex="1" parent="1">
          <mxGeometry x="35" y="656" width="95" height="34" as="geometry" />
        </mxCell>
        <mxCell id="16" value="Activity Lifecycle" style="whiteSpace=wrap;strokeWidth=2;verticalAlign=top;" vertex="1" parent="1">
          <mxGeometry x="234" y="25" width="139" height="34" as="geometry" />
        </mxCell>
        <mxCell id="17" value="" style="curved=1;startArrow=none;endArrow=block;exitX=0.45;exitY=0.99;entryX=0.49;entryY=0;" edge="1" parent="1" source="10" target="11">
          <mxGeometry relative="1" as="geometry">
            <Array as="points">
              <mxPoint x="113" y="84" />
            </Array>
          </mxGeometry>
        </mxCell>
        <mxCell id="18" value="" style="curved=1;startArrow=none;endArrow=block;exitX=0.46;exitY=0.98;entryX=0.5;entryY=-0.01;" edge="1" parent="1" source="11" target="12">
          <mxGeometry relative="1" as="geometry">
            <Array as="points">
              <mxPoint x="103" y="239" />
            </Array>
          </mxGeometry>
        </mxCell>
        <mxCell id="19" value="" style="curved=1;startArrow=none;endArrow=block;exitX=0.33;exitY=0.98;entryX=0.33;entryY=0;" edge="1" parent="1" source="12" target="13">
          <mxGeometry relative="1" as="geometry">
            <Array as="points">
              <mxPoint x="51" y="356" />
            </Array>
          </mxGeometry>
        </mxCell>
        <mxCell id="20" value="" style="curved=1;startArrow=none;endArrow=block;exitX=0.53;exitY=0;entryX=0.53;entryY=0.98;" edge="1" parent="1" source="13" target="12">
          <mxGeometry relative="1" as="geometry">
            <Array as="points">
              <mxPoint x="113" y="356" />
            </Array>
          </mxGeometry>
        </mxCell>
        <mxCell id="21" value="" style="curved=1;startArrow=none;endArrow=block;exitX=0.47;exitY=0.98;entryX=0.5;entryY=-0.01;" edge="1" parent="1" source="13" target="14">
          <mxGeometry relative="1" as="geometry">
            <Array as="points">
              <mxPoint x="93" y="493" />
            </Array>
          </mxGeometry>
        </mxCell>
        <mxCell id="22" value="" style="curved=1;startArrow=none;endArrow=block;exitX=0.47;exitY=0.98;entryX=0.5;entryY=0;" edge="1" parent="1" source="14" target="15">
          <mxGeometry relative="1" as="geometry">
            <Array as="points">
              <mxPoint x="83" y="616" />
            </Array>
          </mxGeometry>
        </mxCell>
        <mxCell id="23" value="" style="curved=1;startArrow=none;endArrow=block;exitX=0.65;exitY=0.99;entryX=-0.01;entryY=0.29;" edge="1" parent="1" source="10" target="3">
          <mxGeometry relative="1" as="geometry">
            <Array as="points">
              <mxPoint x="154" y="84" />
              <mxPoint x="154" y="109" />
            </Array>
          </mxGeometry>
        </mxCell>
        <mxCell id="24" value="" style="curved=1;startArrow=none;endArrow=block;exitX=0.6;exitY=0.98;entryX=0;entryY=0.32;" edge="1" parent="1" source="11" target="4">
          <mxGeometry relative="1" as="geometry">
            <Array as="points">
              <mxPoint x="144" y="239" />
            </Array>
          </mxGeometry>
        </mxCell>
        <mxCell id="25" value="" style="curved=1;startArrow=none;endArrow=block;exitX=0.64;exitY=0.98;entryX=0;entryY=0.3;" edge="1" parent="1" source="12" target="5">
          <mxGeometry relative="1" as="geometry">
            <Array as="points">
              <mxPoint x="144" y="356" />
            </Array>
          </mxGeometry>
        </mxCell>
        <mxCell id="26" value="" style="curved=1;startArrow=none;endArrow=block;exitX=0.61;exitY=0.98;entryX=0;entryY=0.33;" edge="1" parent="1" source="13" target="6">
          <mxGeometry relative="1" as="geometry">
            <Array as="points">
              <mxPoint x="134" y="493" />
            </Array>
          </mxGeometry>
        </mxCell>
        <mxCell id="27" value="" style="curved=1;startArrow=none;endArrow=block;exitX=0.61;exitY=0.98;entryX=0;entryY=0.35;" edge="1" parent="1" source="14" target="7">
          <mxGeometry relative="1" as="geometry">
            <Array as="points">
              <mxPoint x="124" y="616" />
            </Array>
          </mxGeometry>
        </mxCell>
        <mxCell id="28" value="" style="curved=1;startArrow=none;endArrow=block;exitX=0.5;exitY=0.99;entryX=0.31;entryY=0;" edge="1" parent="1" source="15" target="8">
          <mxGeometry relative="1" as="geometry">
            <Array as="points">
              <mxPoint x="83" y="730" />
              <mxPoint x="270" y="755" />
            </Array>
          </mxGeometry>
        </mxCell>
        <mxCell id="29" value="" style="curved=1;startArrow=none;endArrow=block;exitX=0.5;exitY=1;entryX=0.5;entryY=0;" edge="1" parent="1" source="3" target="4">
          <mxGeometry relative="1" as="geometry">
            <Array as="points" />
          </mxGeometry>
        </mxCell>
        <mxCell id="30" value="" style="curved=1;startArrow=none;endArrow=block;exitX=0.5;exitY=1;entryX=0.5;entryY=0;" edge="1" parent="1" source="4" target="5">
          <mxGeometry relative="1" as="geometry">
            <Array as="points" />
          </mxGeometry>
        </mxCell>
        <mxCell id="31" value="" style="curved=1;startArrow=none;endArrow=block;exitX=0.43;exitY=1;entryX=0.42;entryY=0;" edge="1" parent="1" source="5" target="6">
          <mxGeometry relative="1" as="geometry">
            <Array as="points">
              <mxPoint x="300" y="493" />
            </Array>
          </mxGeometry>
        </mxCell>
        <mxCell id="32" value="" style="curved=1;startArrow=none;endArrow=block;exitX=0.74;exitY=0;entryX=0.72;entryY=1;" edge="1" parent="1" source="6" target="5">
          <mxGeometry relative="1" as="geometry">
            <Array as="points">
              <mxPoint x="339" y="493" />
            </Array>
          </mxGeometry>
        </mxCell>
        <mxCell id="33" value="" style="curved=1;startArrow=none;endArrow=block;exitX=0.5;exitY=1;entryX=0.5;entryY=0;" edge="1" parent="1" source="6" target="7">
          <mxGeometry relative="1" as="geometry">
            <Array as="points" />
          </mxGeometry>
        </mxCell>
        <mxCell id="34" value="" style="curved=1;startArrow=none;endArrow=block;exitX=0.5;exitY=1;entryX=0.6;entryY=0;" edge="1" parent="1" source="7" target="8">
          <mxGeometry relative="1" as="geometry">
            <Array as="points">
              <mxPoint x="310" y="755" />
            </Array>
          </mxGeometry>
        </mxCell>
      </root>
    </mxGraphModel>
  </diagram>
</mxfile>
